<?xml version="1.0" encoding="UTF-8"?>
<svg version="1.1" xmlns="http://www.w3.org/2000/svg" width="100" height="100">
<path d="M0 0 C1.60186157 -0.00922989 1.60186157 -0.00922989 3.23608398 -0.01864624 C4.38407471 -0.00427521 5.53206543 0.01009583 6.71484375 0.02490234 C7.89828369 0.02581879 9.08172363 0.02673523 10.30102539 0.02767944 C12.80261242 0.03372023 15.30419206 0.04948033 17.80566406 0.07421875 C21.63764053 0.11069987 25.46864936 0.11523828 29.30078125 0.11474609 C31.73047712 0.12457814 34.16016643 0.13623551 36.58984375 0.14990234 C37.73783447 0.15212799 38.8858252 0.15435364 40.06860352 0.15664673 C41.67046509 0.17578629 41.67046509 0.17578629 43.3046875 0.1953125 C44.24304443 0.2029361 45.18140137 0.21055969 46.14819336 0.21841431 C48.84819866 0.50675576 50.41770283 0.94866737 52.65234375 2.48583984 C54.48594583 5.27603939 54.98976922 7.80760527 55.33837891 11.09570312 C55.4383316 12.00409943 55.5382843 12.91249573 55.64126587 13.84841919 C55.74031219 14.82447113 55.83935852 15.80052307 55.94140625 16.80615234 C56.04955658 17.81998993 56.15770691 18.83382751 56.26913452 19.87838745 C56.49631216 22.02481517 56.71965634 24.17165158 56.93945312 26.31884766 C57.27405007 29.57875028 57.62235997 32.83696606 57.97265625 36.09521484 C58.19223082 38.18627426 58.41100606 40.27741779 58.62890625 42.36865234 C58.78354843 43.81451218 58.78354843 43.81451218 58.9413147 45.2895813 C60.70097823 62.71382674 60.70097823 62.71382674 57.65234375 67.48583984 C52.71611322 70.7766602 47.14018472 69.85478837 41.33984375 69.86083984 C40.11587891 69.88533203 38.89191406 69.90982422 37.63085938 69.93505859 C26.37481849 69.97178303 26.37481849 69.97178303 21.65234375 65.48583984 C18.58514155 60.98727662 18.00907085 56.8187797 18.65234375 51.48583984 C19.00296875 50.31021484 19.35359375 49.13458984 19.71484375 47.92333984 C20.79282698 43.97073465 20.64173499 41.4434048 19.65234375 37.48583984 C18.07348409 35.42645768 16.96091952 34.64012773 14.65234375 33.48583984 C10.91872726 33.73499553 7.20089705 34.03405953 3.48046875 34.43310547 C-0.76331576 34.77163104 -2.89752886 34.71141273 -6.80078125 32.75537109 C-10.09796561 29.81723595 -11.17727125 28.19470114 -11.61328125 23.82177734 C-11.52532478 7.1540255 -11.52532478 7.1540255 -7.63012695 2.38143921 C-4.84704043 0.07007677 -3.57417563 -0.01085571 0 0 Z " fill="#F4BD3A" transform="translate(18.34765625,26.51416015625)"/>
<path d="M0 0 C0.66 0.66 1.32 1.32 2 2 C1.70507772 9.20041962 -0.20233011 15.62273558 -2.4375 22.4375 C-2.75009766 23.42943359 -3.06269531 24.42136719 -3.38476562 25.44335938 C-5.73615914 32.73615914 -5.73615914 32.73615914 -8 35 C-10.4375 35.375 -10.4375 35.375 -13 35 C-14.83320503 33.24012317 -15.80621435 31.45952141 -16.7890625 29.12890625 C-19.82814929 22.13900664 -24.30747875 19.7693331 -31 16.5625 C-31.66 16.046875 -32.32 15.53125 -33 15 C-33.3125 11.8125 -33.3125 11.8125 -33 9 C-27.8672692 6.19343291 -22.63775942 4.48136923 -17.0625 2.8125 C-16.19431641 2.53986328 -15.32613281 2.26722656 -14.43164062 1.98632812 C-9.46571923 0.48866929 -5.19129627 -0.52116012 0 0 Z " fill="#E05838" transform="translate(33,64)"/>
<path d="M0 0 C5.67943661 5.26386808 7.03544795 9.43533767 7.58203125 16.984375 C7.5625 19.375 7.5625 19.375 6.5625 21.375 C4.9125 21.045 3.2625 20.715 1.5625 20.375 C1.52511719 19.78332031 1.48773438 19.19164063 1.44921875 18.58203125 C1.05641612 13.86069769 0.73598501 10.11517876 -2.4375 6.375 C-5.39200788 4.61826558 -7.06163238 4.3519877 -10.5 4.5625 C-13.63968478 5.43092345 -15.11103412 6.12048667 -17.4375 8.375 C-18.35093896 11.32015652 -18.35093896 11.32015652 -18.6875 14.5625 C-18.91179688 16.19251953 -18.91179688 16.19251953 -19.140625 17.85546875 C-19.23859375 18.68691406 -19.3365625 19.51835937 -19.4375 20.375 C-21.09364657 20.75718767 -22.76207024 21.08895102 -24.4375 21.375 C-26.06762838 19.74487162 -25.64726456 17.93062555 -25.6875 15.6875 C-25.60913614 9.57511859 -24.01051868 6.14464602 -19.9375 1.5625 C-14.52065057 -3.17724325 -6.29201746 -2.97440826 0 0 Z " fill="#D35335" transform="translate(49.4375,2.625)"/>
</svg>
